<?xml version="1.0" standalone="no"?>
<!DOCTYPE svg PUBLIC
 "-//W3C//DTD SVG 20000303 Stylable//EN"
 "http://www.w3.org/TR/2000/03/WD-SVG-20000303/DTD/svg-20000303-stylable.dtd">
<svg xmlns="http://www.w3.org/2000/svg"

width="3.43312in" height="3.11424in"
     style="fill-rule: evenodd;
	    fill-opacity: 1;
	    stroke-dasharray: none;
	    stroke-linejoin: miter;
	    stroke-linecap: butt;
	    stroke-opacity: 1;"
     viewBox="83431 -434208 158198 143504">
  <g>
    <path style="stroke: #000000;
		 stroke-linejoin: bevel;
		 stroke-width: 2560;
		 fill: #FFFFFF;"
	  d="M143728 -329616l-5120 29952l5120 -29952z" />
    <path style="stroke: #000000;
		 stroke-linejoin: bevel;
		 stroke-width: 2560;
		 fill: #FFFFFF;"
	  d="M136304 -318864l15104 2304l-5888 24576h-34048c-6144 0 -4700
	     -12937 0 -16896c5761 -4853 11520 -256 22272 2304l2560 -12288z" />
  </g>
  <g>
    <path style="stroke: #000000;
		 stroke-linejoin: bevel;
		 stroke-width: 2560;
		 fill: #FFFFFF;"
	  d="M168560 -328848l9728 24576l-9728 -24576z" />
    <path style="stroke: #000000;
		 stroke-linejoin: bevel;
		 stroke-width: 2560;
		 fill: #FFFFFF;"
	  d="M176628 -320544l-15104 2304l5888 24576h34048c6144 0 4700 -12937
	     0 -16896c-5761 -4853 -11520 -256 -22272 2304l-2560 -12288z" />
  </g>
  <g style="stroke: none;
	    fill: #000000;">
    <path d="M190278 -351145c-7517 7715 -21235 10228 -26121 179c-8832 9690
	     -21611 7895 -26121 -718c-4698 -8075 -3007 -17944 6389 -27275
	     c12591 -11484 22551 -6639 24806 -1076l1879 -5383h8080l-7516
	     26198c-3007 7357 5637 9869 12966 3050c8457 -9510 9584 -23506
	     -1127 -33914c-11464 -10766 -35893 -13099 -52242 3768c-12779
	     15791 -12403 35888 4134 45937c12215 6819 27624 6280 39275 1794
	     l3195 7178c-17664 7178 -38148 6280 -53369 -5742c-16537 -13099
	     -13906 -43066 4510 -58139c18040 -15073 46980 -13458 60698 -179
	     c15973 16329 11275 32479 564 44322zM165284 -374114c-2631 -7895
	     -10899 -6280 -15785 -179c-4134 5024 -5638 10587 -4134 16688
	     c2631 7177 9020 7716 15409 1256c3947 -4666 6202 -11305 4510
	     -17765z" />
  </g>
  <g>
    <path style="stroke: #000000;
		 stroke-width: 2560;
		 fill: #FFFFFF;"
	  d="M84833 -420309c431 15881 9532 38102 18267 57044c5214 2192 11542
	     -727 13261 -6116c-8711 -18887 -18784 -40726 -31528 -50928z" />
    <path style="stroke: #000000;
		 stroke-linejoin: round;
		 stroke-width: 2560;
		 fill: #FFFFFF;"
	  d="M93630 -358897c8450 -1600 25499 -9462 32202 -14852l5241 11366
	     c-4662 -148 -10345 2473 -12239 3348l6989 15153c2768 1020 4515
	     4809 3495 7578c-1021 2767 -6703 5388 -9472 4367c-2767 -1020
	     -4515 -4809 -3494 -7576l-6989 -15154c-1894 873 -7577 3494
	     -10492 7136l-5241 -11366z" />
  </g>
  <g>
    <path style="stroke: #000000;
		 stroke-linejoin: round;
		 stroke-width: 2560;
		 fill: #FFFFFF;"
	  d="M201840 -430736c-3072 9984 -10752 23808 -19200 26112c-3072 1024
	     -7205 -3197 -7168 -6400c43 -3813 3328 -6656 8704 -7424c3840
	     -1536 10496 -6144 17664 -12288z" />
    <path style="stroke: #000000;
		 stroke-linejoin: round;
		 stroke-width: 2560;
		 fill: #FFFFFF;"
	  d="M122080 -432928c3072 9984 10752 23808 19200 26112c3072 1024
	     7205 -3197 7168 -6400c-43 -3813 -3328 -6656 -8704 -7424c-3840
	     -1536 -10496 -6144 -17664 -12288z" />
    <path style="stroke: #000000;
		 stroke-linejoin: bevel;
		 stroke-width: 2560;
		 fill: #FFFFFF;"
	  d="M131604 -397797c16692 8346 41730 8346 58422 0c0 -12519 -17139
	     -21675 -29658 -21675c-12519 0 -28764 9156 -28764 21675z" />
  </g>
  <g>
    <path style="stroke: #000000;
		 stroke-linejoin: bevel;
		 stroke-width: 2688;
		 fill: #FFFFFF;"
	  d="M232317 -342879c-10625 11909 -27851 11909 -38475 0c-10625
	     -11911 -10625 -31220 0 -43131c10624 -11909 27850 -11909 38475 0
	     c10624 11911 10624 31220 0 43131z" />
    <path style="stroke: #000000;
		 stroke-linejoin: bevel;
		 stroke-width: 2303;
		 fill: #FFFFFF;"
	  d="M213080 -372484l-6656 8041l6656 8038l6654 -8038l-6654 -8041z" />
  </g>
</svg>
